<?xml version="1.0" encoding="UTF-8"?>
<svg id="Layer_2" data-name="Layer 2" xmlns="http://www.w3.org/2000/svg" viewBox="0 0 309.48 140.51">
  <defs>
    <style>
      .cls-1, .cls-2, .cls-3 {
        fill: #fff;
      }

      .cls-2 {
        stroke-width: 2px;
      }

      .cls-2, .cls-3 {
        stroke: #fff;
        stroke-miterlimit: 10;
      }

      .cls-3 {
        stroke-width: .5px;
      }
    </style>
  </defs>
  <g id="Layer_1-2" data-name="Layer 1">
    <g>
      <g>
        <path class="cls-2" d="M289.33,64.46c-1.19-.77-2.41-1.5-3.68-2.16-4.14-2.24-8.59-3.87-13.12-5.04l-.42-.11-.43-.1-.86-.19-.86-.19-.43-.09-.43-.08c-1.15-.21-2.3-.43-3.45-.58-1.62-.25-3.25-.41-4.88-.54,.42-1.18,.83-2.38,1.21-3.58,.59-1.87,1.12-3.76,1.57-5.68,.44-1.92,.8-3.88,1.01-5.87,.2-1.99,.26-4.02,.03-6.06-.12-1.02-.31-2.05-.61-3.06-.3-1.01-.71-2-1.27-2.93-.13-.24-.29-.46-.44-.68-.16-.22-.31-.44-.49-.65-.34-.43-.72-.82-1.12-1.18-.81-.73-1.72-1.33-2.69-1.78-.12-.06-.24-.11-.36-.17l-.38-.16-.19-.08c-.06-.02-.12-.04-.17-.06l-.34-.12-.08-.03s-.07-.02-.07-.02h-.02s-.05-.02-.05-.02l-.19-.05-.38-.1c-.25-.08-.51-.11-.77-.17-1.03-.2-2.1-.27-3.15-.21-2.12,.12-4.15,.83-5.92,1.83-1.78,1.01-3.35,2.3-4.76,3.69-1.41,1.4-2.67,2.92-3.83,4.49-1.16,1.57-2.23,3.21-3.25,4.87-1.01,1.66-1.96,3.36-2.86,5.07-.9,1.71-1.76,3.45-2.59,5.19-.83,1.74-1.64,3.5-2.44,5.25l-2.37,5.27c-.4,.88-.8,1.75-1.22,2.62-.42,.87-.84,1.73-1.31,2.58,1.02-1.64,1.93-3.34,2.82-5.05,.89-1.71,1.77-3.43,2.64-5.15,1.75-3.43,3.54-6.84,5.47-10.16,.96-1.66,1.96-3.3,3.01-4.89,1.05-1.59,2.16-3.15,3.35-4.63,.6-.74,1.21-1.46,1.84-2.16,.64-.69,1.3-1.36,1.98-2,1.37-1.27,2.85-2.4,4.46-3.24,1.6-.84,3.33-1.36,5.07-1.41,.87-.03,1.74,.05,2.59,.24,.21,.05,.43,.09,.64,.16l.32,.1,.16,.05h.04s0,.01,0,.01h-.01s.04,0,.03,0h-.01s.07,.02,.07,.02l.34,.13c.05,.02,.12,.04,.17,.06l.14,.06,.28,.13c.1,.04,.19,.1,.29,.14,.77,.39,1.47,.88,2.08,1.46,.3,.29,.59,.6,.84,.94,.13,.16,.25,.34,.37,.51,.11,.18,.23,.35,.33,.54,.84,1.48,1.25,3.22,1.42,5.01,.16,1.79,.07,3.64-.16,5.48-.23,1.84-.6,3.68-1.06,5.5-.46,1.82-1.01,3.63-1.62,5.43-.61,1.8-1.27,3.58-1.97,5.36l-.75,1.93,2.1,.17c2.23,.18,4.46,.39,6.65,.76,1.1,.15,2.19,.39,3.28,.6l.41,.08,.41,.1,.81,.19,.81,.19,.41,.1,.4,.11c4.28,1.15,8.45,2.73,12.31,4.88,.87,.46,1.72,.96,2.56,1.49,.96-.83,1.87-1.61,2.76-2.36Z"/>
        <g>
          <path class="cls-1" d="M294.37,74.46l-.51-.47c-.15-.13-.29-.27-.44-.41-.25-.23-.5-.46-.75-.68l-1.09-.91-5.06,4.33c-.7,.6-1.78,.49-2.4-.24s-.56-1.81,.14-2.41l4.52-3.87,1.53-1.31,2.72-2.33,.44-.37,1.55-1.33c.7-.6,1.78-.49,2.4,.24,.63,.73,.56,1.81-.14,2.41l-1.04,.89,.4,.33c.3,.26,.59,.53,.87,.79,.15,.14,.3,.27,.45,.41l.88,.8,.08,.07,.07,.07c.55-.48,1.08-.96,1.58-1.41,4.44-4,1.23-7.58,.94-7.88-.25-.33-3.29-4.06-7.93-.29-6.58,5.34-16.6,14.32-27.46,24.34,1.56,.98,5.78,3.62,8.5,5.3,7.43-5.91,14.28-11.46,19.74-16.08Z"/>
          <path class="cls-1" d="M264.51,91.12c-.71-.47-1.42-.94-2.12-1.4-.07-.05-.4-.26-.4-.26-.08-.05-.16-.1-.24-.16-24.93,23.14-52.39,49.76-52.39,49.76,0,0-.76,.76-.44,1.26,0,0,0,0,0,0,0,0,.02,.01,.02,.02s.01,.02,.02,.03c0,0,0,0,0,0,.44,.4,1.32-.24,1.32-.24,0,0,32.18-24.2,59.38-45.66-.51-.32-1.02-.65-1.55-.99-1.21-.79-2.43-1.59-3.6-2.37Z"/>
        </g>
        <path class="cls-3" d="M308.13,96.17c.66-1.25,1-2.65,1.08-4,.08-1.35-.08-2.67-.36-3.91-.29-1.24-.7-2.42-1.19-3.54-.48-1.13-1.04-2.2-1.64-3.24-1.2-2.07-2.58-4-4.06-5.84-.74-.91-1.51-1.81-2.31-2.67-.4-.43-.8-.85-1.23-1.28l-.31-.31-.07-.07h0s-.06-.06-.06-.06l-.04-.04-.16-.15-.65-.59c-.44-.39-.86-.8-1.31-1.18l-.54-.45-.82-.67-.68-.56-.15-.12-2.73,2.33,.04,.03,.66,.5,.63,.53,.33,.27,.94,.79c.41,.37,.81,.75,1.22,1.12l.61,.56h.01s.14,.14,.14,.14l.04,.04s0,0,.01,.01l.08,.08,.29,.3c.38,.38,.76,.79,1.13,1.19,.74,.81,1.46,1.65,2.15,2.51,1.38,1.71,2.65,3.51,3.73,5.39,1.07,1.87,1.97,3.83,2.42,5.8,.23,.98,.33,1.96,.28,2.88-.05,.92-.27,1.79-.67,2.56-.4,.77-.98,1.46-1.71,2.06-.37,.29-.76,.57-1.18,.82-.1,.06-.22,.12-.32,.18-.11,.06-.22,.12-.33,.18l-.33,.16h.02c.09-.05-.06,.02-.03,0h0s-.03,0-.03,0l-.1,.04-.2,.08-.79,.33-.67,.21c-.11,.04-.22,.08-.34,.11l-.37,.09c-.25,.06-.49,.13-.74,.17-.5,.08-1,.18-1.52,.21l-.38,.03c-.13,.01-.26,.02-.39,.02l-.78,.02c-1.04,0-2.09-.07-3.14-.24-1.05-.14-2.1-.39-3.14-.66-2.09-.57-4.15-1.34-6.16-2.24-2.02-.91-4-1.93-5.95-3.02-.95-.54-1.9-1.09-2.84-1.66-.99-.59-1.97-1.2-2.95-1.82-1.82-1.15-3.62-2.33-5.46-3.51-.1-.06-.19-.13-.29-.19-1.95-1.23-3.93-2.42-5.94-3.55-4.02-2.27-8.2-4.34-12.6-5.9-2.2-.79-4.45-1.45-6.74-1.95-2.29-.5-4.63-.82-6.98-.95-2.35-.13-4.71-.05-7.05,.23-2.33,.29-4.64,.79-6.88,1.46-.56,.18-1.12,.34-1.67,.54-.55,.2-1.11,.38-1.64,.6l-.81,.33-.41,.16-.42,.2-1.55,.72c-1.03,.45-2.07,1.05-3.1,1.59l-.77,.42c-.25,.15-.49,.3-.74,.45l-1.48,.91-.37,.23-.18,.11-.18,.13-.71,.5-1.42,1c-.12,.08-.24,.16-.35,.25l-.34,.27-.68,.54-1.36,1.08-1.3,1.15-.65,.58c-.21,.19-.44,.38-.64,.59l-1.22,1.22c-.41,.41-.82,.81-1.2,1.25-3.13,3.39-5.8,7.18-8.01,11.2-1.12,2-2.07,4.09-2.94,6.21-.24,.52-.41,1.07-.61,1.6l-.59,1.61c-.19,.54-.35,1.09-.52,1.63l-.5,1.64c.4-1.07,.79-2.14,1.21-3.2l.67-1.57c.23-.52,.43-1.05,.7-1.56l.75-1.53,.37-.76c.13-.25,.28-.5,.41-.75,.55-.99,1.07-2,1.69-2.95,2.36-3.87,5.16-7.45,8.33-10.65,.38-.42,.8-.79,1.21-1.17l1.24-1.15c.2-.2,.42-.37,.64-.55l.65-.54,1.3-1.07,1.36-1,.68-.5,.34-.25c.11-.08,.23-.15,.35-.23l1.41-.91,.71-.46,.18-.11,.18-.1,.36-.21,1.46-.84c.24-.14,.48-.28,.73-.42l.75-.37c1-.49,1.96-1.01,3.03-1.44l1.57-.67,.36-.15,.39-.14,.78-.29c.52-.2,1.05-.36,1.58-.53,.53-.18,1.06-.32,1.6-.47,2.14-.58,4.32-.99,6.52-1.2,2.2-.21,4.41-.24,6.61-.06,4.4,.35,8.73,1.44,12.89,3.02,2.08,.79,4.12,1.7,6.12,2.7,2.01,.99,3.98,2.07,5.92,3.21,1.8,1.05,3.58,2.16,5.33,3.29,.14,.09,.27,.18,.41,.26,1.89,1.24,3.79,2.52,5.72,3.77,.64,.41,1.29,.83,1.93,1.23,3.25,2.05,6.61,4,10.18,5.62,2.14,.97,4.36,1.82,6.67,2.47,1.16,.31,2.33,.59,3.54,.76,1.2,.2,2.43,.28,3.67,.3l.93-.02c.15,0,.31-.01,.47-.03l.47-.04c.62-.04,1.25-.16,1.87-.26,.31-.06,.62-.14,.93-.21l.46-.11c.16-.04,.32-.1,.48-.15l.95-.31,.79-.33,.2-.08,.1-.04,.05-.02c-.05,.02,.13-.06,.13-.06l.43-.21c.14-.07,.28-.15,.43-.23,.14-.08,.28-.15,.42-.24,.56-.33,1.1-.71,1.62-1.13,1.04-.85,1.97-1.92,2.62-3.18Z"/>
      </g>
      <g>
        <path class="cls-1" d="M3.12,69.11c-2.81-3.88-3.12-8.39-3.12-10.16,0-4.4,1.38-8.19,4.11-11.28,2.44-2.77,5.91-4.89,10.29-6.3,4.49-1.45,9.77-2.1,15.34-1.94,.74-3.28,1.42-6.63,2.09-9.89C35.04,13.73,37.82,.07,45.81,.07c2.83,0,5.14,1.45,6.69,4.2,.9,1.59,1.53,3.59,1.88,5.93,0,.01,0,.03,0,.04,.2,1.13,.37,2.31,.5,3.49,.74,6.2,.94,14.31,1.16,22.9,.08,3.28,.17,6.61,.28,9.84,3.63,2.11,2.82,4.65,.12,2.91,.2,4.59,.49,8.91,.97,12.57,1.21,9.32,3.16,10.72,4.21,10.72,1.61,0,3.53-2.02,5.4-5.68,1.6-3.14,3.21-7.54,4.64-12.73,.18-.65,.85-1.03,1.5-.85,.65,.18,1.03,.85,.85,1.5-3.71,13.41-7.88,20.2-12.39,20.2s-5.85-6.86-6.63-12.84c-.54-4.16-.84-9.12-1.05-14.34-3.46-1.85-7.56-3.36-12.1-4.44-.67-.16-1.35-.31-2.02-.44-3.85,16.48-10.18,31.94-23.8,31.94-5.66,0-10.13-2.03-12.92-5.88Zm-.68-10.16c0,5.13,3.8,8.45,9.68,8.45,9.24,0,13.8-11.93,17.05-25.52-.35,0-.69-.01-1.04-.01-4.74,0-9.22,.61-12.99,1.83-5.8,1.87-12.71,6.04-12.71,15.26Zm51.42-13.81c-.09-2.8-.17-5.64-.24-8.45-.22-8.53-.42-16.59-1.14-22.68-1-8.45-4.68-8.58-6.1-3.68-1.11,3.84-2.04,9.13-3.12,15.24-.84,4.77-1.75,9.95-2.88,15.09,.68,.14,1.37,.29,2.05,.45,4.2,1,8.06,2.37,11.43,4.03Z"/>
        <path class="cls-1" d="M121,53.51c.59,.32,.82,1.05,.5,1.65-.29,.53-.64,1.25-1.06,2.07-1.48,2.92-3.04,5.91-4.66,8.59,0,.01-.01,.02-.02,.04-.25,.42-.58,.96-.97,1.55-.01,.01-.02,.03-.03,.04-2.92,4.47-6.05,7.73-9.3,7.73-2.06,0-3.86-.8-5.35-2.38-2.54-2.69-4.18-7.69-4.9-14.92-.27,1.06-.56,2.12-.87,3.16-.58,1.9-1.22,3.61-1.91,5.12,0,.02-.02,.04-.03,.06-.39,.89-.86,1.81-1.39,2.66,0,0,0,0,0,.01-2.49,4.14-5.56,6.23-9.17,6.23-3.32,0-6.2-1.46-8.31-4.22-1.84-2.41-2.99-5.7-3.23-9.28-.53-7.97,1.71-15.46,6.01-20.06,2.68-2.87,5.97-4.38,9.52-4.38,3.32,0,6.01,1.22,8,3.64,.4,.49,.76,1.01,1.08,1.56,.05-1.31,.12-2.67,.2-4.06,.64-10.79,2.61-20.11,5.71-26.95,3.36-7.43,7.83-11.36,12.92-11.36,2.85,0,4.71,1.95,5.3,5.43,.11,.58,.17,1.28,.19,2.1,0,.06,0,.13,0,.2,0,.09,0,.18,0,.27,0,7.22-2.9,16.3-8.61,26.98-2.08,3.89-4.24,7.45-6.22,10.49-.61,12.68,.87,22.08,3,24.43,.26,.29,.5,.43,.71,.43,1.2,0,3.15-2.06,4.7-4.36,.29-.45,.58-.9,.86-1.36,1.84-3,3.46-6.21,4.61-8.49,.42-.84,.79-1.56,1.08-2.12,.32-.59,1.05-.82,1.65-.5h0Zm-26.51-4.69s-.01-.09-.02-.14c-.02-.13-.04-.25-.06-.38-.06-.37-.14-.74-.23-1.1-.02-.07-.03-.14-.05-.21-.03-.11-.05-.22-.08-.32-.04-.14-.08-.29-.12-.43-.04-.14-.09-.28-.14-.42,0,0,0-.01,0-.02-.04-.12-.08-.24-.13-.35-.05-.14-.11-.29-.17-.43-.32-.76-.7-1.43-1.15-1.97-.74-.9-1.57-1.34-2.53-1.34-1.27,0-2.54,.66-3.76,1.97-3.31,3.53-5.39,10.88-4.95,17.46,.37,5.46,2.26,8.98,4.83,8.98,1.07,0,2.35-1.27,3.52-3.43,.03-.04,.05-.09,.07-.14,.1-.18,.19-.37,.28-.56,.07-.15,.15-.3,.22-.45,.14-.3,.27-.6,.4-.92,.03-.06,.06-.12,.09-.18,.53-1.24,1.02-2.61,1.49-4.12,1.18-3.82,1.96-7.97,2.49-11.5Zm10.24-8.42c6.23-10.24,12.05-22.67,12.05-32.39,0-.21,0-.42-.01-.62,0-.1,0-.19-.01-.28-.07-1.16-.25-1.82-.38-2.11-3.53,.59-9.3,12.21-11.47,33.53-.06,.63-.12,1.26-.18,1.88Z"/>
        <path class="cls-1" d="M141.83,55.03c-1.45,3.7-2.87,6.81-4.3,9.41l-.02,.04-.1,.18c-.53,.97-1.35,2.46-2.42,3.89-3.09,4.35-6.33,6.55-9.63,6.55-1.82,0-3.37-.77-4.6-2.3-5.72-7.12-2.52-29.74-1.86-32.71,.57-2.58,3.73-3.35,6.4-2.76,3.2,.71,4.95,3.01,4.35,5.72-.39,1.78-1.54,7.75-2.14,13.93-.93,9.62,.22,12.21,.76,12.88,.22,.27,.38,.29,.51,.29,1.66,0,3.29-1.72,4.54-3.47,2.06-3.04,4.15-7.23,6.25-12.56,.25-.63,.95-.93,1.58-.69,.63,.25,.93,.95,.69,1.58Zm-18.9-23.49c-.56-1.17-.82-2.67-.73-4.23,.09-1.56,.51-3.02,1.19-4.13,.81-1.31,1.96-2.02,3.15-1.95,1.19,.07,2.25,.9,2.91,2.29,.56,1.17,.82,2.67,.73,4.23-.19,3.51-1.98,6.08-4.18,6.08-.05,0-.11,0-.16,0-1.19-.07-2.25-.9-2.92-2.29Z"/>
        <path class="cls-1" d="M182.19,55.04c-.12,.3-.26,.64-.41,1.02-1.74,4.3-3.37,8.02-4.94,10.93-.02,.06-.05,.11-.08,.17-.05,.08-.1,.18-.18,.31-.05,.08-.09,.16-.14,.24-.02,.04-.04,.08-.06,.11-.19,.35-.39,.68-.58,1-.03,.04-.05,.09-.08,.14-1.88,3.12-4.19,6.15-6.6,6.15-4.24,0-8.58-.9-8.58-7.6,0-2.93,.39-6.45,.8-10.17,.46-4.15,.93-8.45,.85-11.99-.06-2.58-.46-3.07-.52-3.13,0,0-.02,0-.05,0-1.56,0-3.17,.83-4.78,2.47-1.54,1.56-2.94,3.68-4.15,6.08,0,0,0,.02-.01,.02-2.38,4.87-4.07,10.52-4.87,15.16-.05,.29-.1,.57-.14,.85-.26,1.72-.39,3.28-.38,4.57,0,.05,0,.1,0,.15h0c0,.06,0,.12,0,.18,0,1.55-1.46,2.79-3.81,3.19-.44,.07-.89,.12-1.35,.12-1.46,0-2.87-.45-3.19-1.77-1.63-6.73-.61-28.98,.31-33.14,.28-1.28,1.23-2.24,2.61-2.66,1.96-.59,4.42,0,5.84,1.38,1.06,1.03,1.43,2.37,1.05,3.77-.65,2.43-1.19,8.83-1.46,15.13,.68-2.16,1.48-4.31,2.41-6.34,.01-.03,.03-.06,.04-.09,1.68-3.79,3.81-7.33,6.36-9.94,2.72-2.77,5.66-4.18,8.73-4.18,3.36,0,5.8,2.21,6.52,5.91,.68,3.5,0,9.44-.67,15.19-.38,3.31-.74,6.44-.83,8.94-.11,3.12,.28,3.96,.41,4.16,.31-.04,1.23-.41,2.89-2.91,0,0,0-.02,.01-.02,.4-.63,.83-1.35,1.3-2.17,.08-.13,.14-.25,.19-.33,0,0,0,0,0,0,.07-.14,.15-.27,.22-.42,1.87-3.53,3.61-7.82,4.64-10.38,.15-.38,.29-.72,.42-1.02,.25-.62,.97-.92,1.59-.67,.62,.26,.92,.97,.66,1.59Z"/>
        <path class="cls-1" d="M226.78,55.03c-1.45,3.7-2.87,6.81-4.3,9.41l-.02,.04-.1,.18c-.53,.97-1.35,2.46-2.42,3.89-3.09,4.35-6.33,6.55-9.63,6.55-1.82,0-3.37-.77-4.6-2.3-1.97-2.45-2.88-6.75-3.2-11.45-.55,1.74-1.14,3.32-1.78,4.74,0,.02-.02,.04-.02,.06-.4,.91-.88,1.85-1.43,2.72,0,0,0,.01-.01,.02-2.49,4.13-5.56,6.21-9.16,6.21-3.32,0-6.2-1.46-8.31-4.22-1.84-2.41-2.99-5.7-3.23-9.28-.53-7.97,1.71-15.46,6.01-20.06,2.68-2.87,5.97-4.38,9.52-4.38,3.32,0,6.02,1.22,8,3.64,.5,.61,.93,1.27,1.31,1.97,.18-1.28,.35-2.22,.45-2.68,0,0,0-.02,0-.03,0,0,0-.01,0-.02,.6-2.54,3.73-3.3,6.39-2.71,3.2,.71,4.95,3.01,4.35,5.72-.39,1.78-1.55,7.75-2.14,13.93-.93,9.62,.22,12.21,.76,12.88,.22,.27,.38,.29,.51,.29,1.66,0,3.29-1.72,4.54-3.47,2.06-3.04,4.15-7.23,6.25-12.56,.25-.63,.95-.93,1.58-.69,.63,.25,.93,.95,.69,1.58Zm-24.04-6.42c-.03-.18-.06-.36-.09-.53-.06-.3-.12-.59-.19-.88-.02-.07-.03-.15-.05-.22-.03-.11-.06-.22-.09-.32,0-.01,0-.02,0-.03-.04-.13-.07-.26-.11-.39-.08-.27-.17-.54-.27-.8-.02-.06-.05-.12-.07-.18-.03-.08-.06-.16-.1-.24-.32-.76-.7-1.43-1.15-1.97-.74-.9-1.57-1.34-2.53-1.34-1.27,0-2.54,.66-3.76,1.97-3.31,3.53-5.39,10.88-4.95,17.46,.37,5.46,2.26,8.98,4.83,8.98,1.08,0,2.37-1.28,3.54-3.46,.03-.05,.05-.1,.08-.15,.09-.16,.17-.33,.26-.51,.03-.05,.05-.11,.08-.16,.05-.1,.09-.19,.14-.29,.14-.3,.27-.6,.4-.92,.03-.06,.06-.12,.1-.18,.53-1.24,1.02-2.61,1.49-4.12,1.1-3.59,1.86-7.46,2.39-10.84,0,0,0,0,0-.01,.02-.29,.04-.57,.07-.85h0Z"/>
      </g>
      <g>
        <path class="cls-1" d="M81.22,86.76h6.05c1.52,0,2.86,.3,4.04,.9,1.17,.6,2.09,1.45,2.74,2.53,.65,1.09,.97,2.33,.97,3.74s-.32,2.66-.97,3.75c-.65,1.09-1.56,1.93-2.74,2.53-1.18,.6-2.52,.9-4.04,.9h-6.05v-14.35Zm5.93,12.57c1.16,0,2.18-.23,3.06-.68,.88-.45,1.56-1.08,2.04-1.89,.48-.82,.72-1.76,.72-2.82s-.24-2-.72-2.82c-.48-.81-1.16-1.45-2.04-1.9-.88-.45-1.9-.68-3.06-.68h-3.88v10.79h3.88Z"/>
        <path class="cls-1" d="M108.58,99.33v1.78h-10.42v-14.35h10.13v1.78h-8.08v4.41h7.2v1.74h-7.2v4.64h8.37Z"/>
        <path class="cls-1" d="M120.27,88.55h-4.92v-1.78h11.87v1.78h-4.92v12.57h-2.03v-12.57Z"/>
        <path class="cls-1" d="M139.87,99.33v1.78h-10.42v-14.35h10.13v1.78h-8.08v4.41h7.2v1.74h-7.2v4.64h8.37Z"/>
        <path class="cls-1" d="M143.2,86.76h2.05v12.57h7.77v1.78h-9.82v-14.35Z"/>
        <path class="cls-1" d="M164.58,97.53h-7.63l-1.58,3.59h-2.11l6.5-14.35h2.03l6.52,14.35h-2.15l-1.58-3.59Zm-.72-1.64l-3.1-7.03-3.1,7.03h6.19Z"/>
      </g>
    </g>
  </g>
</svg>