<?xml version="1.0" encoding="UTF-8"?>
<svg id="Layer_2" data-name="Layer 2" xmlns="http://www.w3.org/2000/svg" viewBox="0 0 354.31 160.88">
  <defs>
    <style>
      .cls-1 {
        fill: #010101;
      }

      .cls-2 {
        fill: #686673;
      }

      .cls-3 {
        stroke-width: .5px;
      }

      .cls-3, .cls-4 {
        stroke: #000;
        stroke-miterlimit: 10;
      }

      .cls-4 {
        stroke-width: 2px;
      }
    </style>
  </defs>
  <g id="Layer_1-2" data-name="Layer 1">
    <g>
      <g>
        <path d="M3.57,79.12c-3.22-4.44-3.57-9.61-3.57-11.63,0-5.04,1.58-9.38,4.7-12.91,2.8-3.17,6.76-5.6,11.78-7.22,5.14-1.66,11.19-2.4,17.56-2.22,.85-3.76,1.63-7.59,2.39-11.33C40.12,15.72,43.3,.08,52.46,.08c3.24,0,5.89,1.66,7.65,4.8,1.03,1.83,1.75,4.11,2.16,6.79,0,.02,0,.03,0,.05,.23,1.29,.42,2.64,.58,3.99,.84,7.1,1.08,16.39,1.33,26.22,.1,3.76,.19,7.56,.32,11.27,4.16,2.42,3.23,5.33,.13,3.33,.23,5.25,.56,10.2,1.11,14.39,1.38,10.68,3.61,12.27,4.82,12.27,1.84,0,4.04-2.31,6.18-6.51,1.83-3.59,3.67-8.63,5.32-14.57,.2-.74,.97-1.18,1.71-.97,.74,.2,1.18,.97,.97,1.71-4.24,15.35-9.02,23.13-14.19,23.13s-6.7-7.86-7.59-14.7c-.62-4.77-.96-10.44-1.2-16.42-3.96-2.11-8.65-3.85-13.85-5.08-.77-.18-1.54-.35-2.31-.51-4.41,18.87-11.65,36.57-27.25,36.57-6.48,0-11.59-2.33-14.79-6.73Zm-.78-11.63c0,5.87,4.35,9.67,11.09,9.67,10.58,0,15.8-13.66,19.52-29.22-.4,0-.79-.01-1.19-.01-5.43,0-10.56,.7-14.87,2.09-6.64,2.14-14.55,6.92-14.55,17.47Zm58.87-15.81c-.11-3.2-.19-6.46-.27-9.68-.25-9.77-.48-19-1.31-25.97-1.15-9.67-5.36-9.82-6.99-4.21-1.27,4.4-2.34,10.45-3.57,17.45-.96,5.46-2.01,11.39-3.3,17.28,.78,.16,1.56,.33,2.34,.52,4.81,1.14,9.23,2.71,13.09,4.61Z"/>
        <path d="M138.54,61.26c.68,.36,.94,1.21,.58,1.89-.33,.61-.74,1.43-1.21,2.37-1.69,3.35-3.48,6.77-5.34,9.84,0,.01-.02,.03-.02,.04-.28,.48-.66,1.1-1.12,1.77-.01,.02-.02,.03-.03,.05-3.35,5.12-6.93,8.85-10.65,8.85-2.35,0-4.42-.92-6.12-2.73-2.91-3.09-4.78-8.8-5.61-17.08-.3,1.22-.64,2.43-1,3.61-.67,2.17-1.4,4.13-2.19,5.87,0,.02-.02,.04-.03,.07-.45,1.02-.98,2.07-1.6,3.04,0,0,0,0,0,.01-2.85,4.74-6.37,7.13-10.5,7.13-3.8,0-7.09-1.67-9.52-4.84-2.11-2.76-3.42-6.53-3.69-10.62-.61-9.12,1.96-17.71,6.88-22.96,3.07-3.28,6.84-5.02,10.9-5.02,3.8,0,6.89,1.4,9.16,4.17,.46,.56,.87,1.16,1.24,1.79,.06-1.5,.13-3.05,.23-4.65,.73-12.35,2.99-23.02,6.54-30.86,3.85-8.51,8.96-13.01,14.79-13.01,3.26,0,5.39,2.23,6.06,6.22,.12,.67,.2,1.46,.22,2.41,0,.07,0,.15,0,.23,0,.1,0,.21,0,.31,0,8.27-3.32,18.67-9.86,30.9-2.38,4.46-4.86,8.53-7.12,12.01-.7,14.52,1,25.28,3.44,27.97,.29,.33,.57,.49,.81,.49,1.37,0,3.6-2.36,5.39-4.99,.33-.51,.66-1.03,.99-1.56,2.11-3.44,3.96-7.12,5.28-9.72,.48-.96,.9-1.79,1.24-2.43,.36-.68,1.21-.94,1.89-.58h0Zm-30.35-5.37c0-.05-.01-.11-.02-.16-.02-.15-.04-.29-.07-.44-.07-.43-.16-.85-.26-1.26-.02-.08-.04-.16-.06-.24-.03-.12-.06-.25-.1-.37-.05-.17-.09-.33-.14-.49-.05-.16-.1-.32-.16-.48,0,0,0-.01,0-.02-.05-.14-.1-.27-.15-.4-.06-.17-.13-.33-.19-.49-.37-.87-.8-1.64-1.32-2.26-.85-1.03-1.79-1.53-2.89-1.53-1.46,0-2.91,.76-4.3,2.25-3.79,4.05-6.17,12.45-5.66,19.99,.42,6.25,2.59,10.28,5.53,10.28,1.23,0,2.7-1.46,4.04-3.92,.03-.05,.06-.1,.08-.16,.11-.21,.22-.42,.32-.64,.08-.17,.17-.34,.25-.52,.16-.34,.31-.69,.46-1.05,.03-.07,.07-.14,.11-.21,.6-1.42,1.17-2.99,1.7-4.72,1.35-4.38,2.24-9.13,2.85-13.16Zm11.72-9.65c7.13-11.72,13.79-25.96,13.79-37.08,0-.24,0-.48-.01-.71,0-.11,0-.22-.02-.32-.08-1.33-.29-2.09-.43-2.42-4.04,.68-10.65,13.98-13.13,38.39-.07,.72-.14,1.44-.2,2.15Z"/>
        <path d="M162.39,63c-1.67,4.23-3.29,7.79-4.92,10.78l-.02,.05-.12,.21c-.61,1.11-1.54,2.81-2.77,4.45-3.54,4.98-7.25,7.5-11.03,7.5-2.09,0-3.86-.89-5.26-2.64-6.55-8.15-2.89-34.05-2.14-37.45,.66-2.96,4.27-3.83,7.33-3.16,3.66,.81,5.66,3.44,4.98,6.55-.45,2.04-1.77,8.88-2.45,15.95-1.07,11.01,.25,13.98,.86,14.75,.25,.31,.43,.34,.59,.34,1.9,0,3.77-1.96,5.2-3.98,2.36-3.48,4.75-8.28,7.15-14.38,.28-.72,1.09-1.07,1.81-.79,.72,.28,1.07,1.09,.79,1.81Zm-21.64-26.89c-.64-1.34-.94-3.06-.84-4.84,.1-1.78,.58-3.46,1.37-4.72,.93-1.5,2.24-2.31,3.61-2.24,1.36,.08,2.58,1.03,3.34,2.62,.64,1.34,.94,3.06,.84,4.84-.22,4.02-2.27,6.97-4.79,6.97-.06,0-.12,0-.18,0-1.36-.08-2.58-1.03-3.34-2.62Z"/>
        <path d="M208.6,63.02c-.14,.35-.3,.74-.47,1.17-2,4.92-3.86,9.18-5.65,12.51-.03,.07-.06,.13-.09,.19-.05,.09-.12,.21-.2,.36-.05,.09-.1,.18-.16,.27-.02,.04-.05,.09-.07,.13-.22,.4-.44,.77-.67,1.14-.03,.05-.06,.1-.09,.16-2.15,3.57-4.8,7.04-7.56,7.04-4.86,0-9.82-1.03-9.82-8.7,0-3.35,.45-7.38,.92-11.65,.52-4.75,1.07-9.67,.98-13.73-.07-2.96-.53-3.51-.6-3.58,0,0-.03,0-.05,0-1.79,0-3.63,.95-5.48,2.82-1.76,1.79-3.36,4.22-4.75,6.96,0,0,0,.02-.01,.03-2.72,5.57-4.66,12.04-5.58,17.35-.06,.33-.11,.65-.16,.97-.29,1.96-.44,3.75-.44,5.24,0,.06,0,.12,0,.17h0c0,.07,0,.14,0,.2,0,1.77-1.68,3.19-4.37,3.66-.5,.09-1.02,.14-1.54,.14-1.68,0-3.29-.52-3.66-2.03-1.87-7.7-.7-33.18,.36-37.94,.32-1.46,1.41-2.57,2.99-3.04,2.24-.67,5.06,0,6.69,1.58,1.21,1.18,1.64,2.71,1.21,4.32-.75,2.78-1.36,10.11-1.67,17.33,.77-2.47,1.69-4.94,2.75-7.26,.01-.04,.03-.07,.05-.11,1.93-4.34,4.36-8.39,7.29-11.38,3.12-3.18,6.48-4.79,9.99-4.79,3.85,0,6.64,2.53,7.47,6.77,.77,4.01,0,10.81-.77,17.39-.44,3.79-.85,7.37-.95,10.24-.13,3.58,.32,4.54,.47,4.76,.35-.05,1.41-.46,3.31-3.33,0,0,0-.02,.02-.03,.46-.72,.95-1.54,1.49-2.49,.09-.15,.16-.28,.21-.38,0,0,0,0,0,0,.08-.16,.17-.31,.26-.48,2.14-4.04,4.13-8.95,5.32-11.88,.18-.43,.33-.82,.48-1.17,.29-.71,1.11-1.05,1.82-.76,.71,.29,1.05,1.11,.76,1.82Z"/>
        <path d="M259.65,63c-1.67,4.23-3.29,7.79-4.92,10.78l-.02,.05-.12,.21c-.61,1.11-1.54,2.81-2.77,4.45-3.54,4.98-7.25,7.5-11.03,7.5-2.09,0-3.86-.89-5.26-2.64-2.26-2.81-3.3-7.73-3.67-13.11-.63,2-1.31,3.8-2.04,5.42,0,.02-.02,.04-.03,.06-.46,1.05-1,2.12-1.63,3.12,0,0,0,.01-.01,.02-2.85,4.73-6.36,7.12-10.49,7.12-3.8,0-7.09-1.67-9.52-4.84-2.11-2.76-3.42-6.53-3.69-10.62-.61-9.12,1.96-17.71,6.88-22.96,3.07-3.28,6.84-5.02,10.9-5.02,3.8,0,6.89,1.4,9.16,4.17,.57,.7,1.07,1.46,1.5,2.25,.21-1.47,.4-2.54,.51-3.07,0,0,0-.02,0-.03,0,0,0-.02,0-.02,.69-2.91,4.27-3.78,7.32-3.1,3.66,.81,5.66,3.44,4.98,6.55-.45,2.04-1.77,8.88-2.46,15.95-1.07,11.01,.25,13.98,.87,14.75,.25,.31,.43,.34,.59,.34,1.9,0,3.77-1.96,5.2-3.97,2.36-3.48,4.75-8.28,7.15-14.38,.28-.72,1.09-1.07,1.81-.79,.72,.28,1.07,1.09,.79,1.81Zm-27.52-7.35c-.03-.2-.06-.41-.1-.61-.06-.34-.13-.68-.21-1.01-.02-.08-.04-.17-.06-.25-.03-.12-.06-.25-.1-.37,0-.01,0-.03,0-.04-.04-.15-.09-.3-.13-.45-.1-.31-.2-.61-.31-.91-.02-.07-.05-.14-.08-.21-.04-.09-.07-.18-.11-.27-.36-.87-.8-1.64-1.31-2.26-.85-1.03-1.8-1.53-2.9-1.53-1.46,0-2.9,.76-4.3,2.25-3.79,4.05-6.17,12.45-5.66,19.99,.42,6.25,2.59,10.28,5.53,10.28,1.23,0,2.71-1.47,4.05-3.96,.03-.06,.06-.12,.09-.17,.1-.19,.2-.38,.29-.58,.03-.06,.06-.12,.09-.19,.05-.11,.11-.22,.16-.33,.16-.34,.31-.69,.46-1.05,.03-.07,.07-.14,.11-.21,.6-1.42,1.17-2.99,1.7-4.72,1.26-4.11,2.13-8.54,2.73-12.41,0,0,0,0,0-.01,.03-.33,.05-.65,.08-.97h0Z"/>
      </g>
      <g>
        <path class="cls-4" d="M331.26,73.8c-1.37-.88-2.76-1.72-4.21-2.47-4.74-2.57-9.83-4.43-15.02-5.77l-.49-.13-.49-.11-.98-.22-.98-.22-.49-.11-.49-.09c-1.32-.23-2.63-.49-3.95-.66-1.86-.28-3.72-.47-5.59-.61,.48-1.36,.95-2.72,1.39-4.1,.68-2.14,1.29-4.31,1.8-6.51,.51-2.2,.92-4.44,1.16-6.72,.23-2.28,.3-4.6,.04-6.94-.14-1.17-.36-2.34-.7-3.5-.35-1.15-.82-2.29-1.45-3.36-.15-.27-.33-.52-.5-.78-.18-.25-.36-.51-.56-.74-.39-.49-.83-.94-1.29-1.36-.93-.83-1.97-1.52-3.08-2.04-.14-.06-.27-.13-.42-.19l-.44-.18-.22-.09c-.07-.03-.13-.05-.2-.07l-.39-.14-.09-.03s-.09-.03-.08-.03h-.03s-.05-.02-.05-.02l-.22-.06-.44-.12c-.29-.09-.59-.13-.88-.2-1.18-.23-2.4-.31-3.61-.24-2.42,.14-4.75,.95-6.78,2.1-2.04,1.16-3.83,2.63-5.45,4.22-1.61,1.61-3.05,3.35-4.39,5.15-1.33,1.8-2.56,3.67-3.72,5.57-1.15,1.9-2.24,3.84-3.28,5.8-1.04,1.96-2.01,3.95-2.97,5.95-.95,2-1.88,4.01-2.79,6.02l-2.72,6.04c-.46,1-.92,2.01-1.4,3-.48,.99-.96,1.98-1.49,2.95,1.17-1.87,2.21-3.83,3.23-5.79,1.02-1.96,2.03-3.92,3.03-5.89,2-3.93,4.05-7.83,6.27-11.63,1.1-1.9,2.25-3.77,3.45-5.6,1.21-1.82,2.48-3.6,3.83-5.3,.68-.85,1.38-1.67,2.11-2.47,.73-.8,1.49-1.56,2.27-2.29,1.57-1.45,3.27-2.74,5.1-3.71,1.84-.96,3.82-1.55,5.81-1.62,1-.03,1.99,.06,2.97,.28,.24,.06,.49,.1,.73,.18l.36,.11,.18,.05h.04s0,.02,0,.02h-.02c-.06-.03,.05,.01,.03,0h-.01s.08,.03,.08,.03l.39,.15c.06,.02,.13,.05,.19,.07l.16,.07,.32,.14c.11,.05,.22,.11,.33,.17,.88,.44,1.68,1.01,2.38,1.67,.34,.34,.67,.69,.96,1.07,.15,.19,.28,.39,.42,.59,.12,.21,.26,.41,.37,.62,.96,1.69,1.44,3.69,1.63,5.73,.18,2.05,.08,4.17-.19,6.27-.26,2.11-.69,4.21-1.22,6.3-.53,2.09-1.16,4.16-1.85,6.22-.7,2.06-1.45,4.1-2.25,6.14l-.86,2.2,2.41,.2c2.55,.21,5.1,.44,7.62,.87,1.26,.18,2.51,.44,3.76,.69l.47,.09,.46,.11,.93,.22,.93,.22,.46,.11,.46,.13c4.9,1.32,9.67,3.13,14.09,5.59,1,.53,1.97,1.1,2.93,1.7,1.09-.95,2.15-1.85,3.16-2.7Z"/>
        <g>
          <path class="cls-2" d="M337.04,85.26l-.58-.54c-.17-.15-.34-.31-.51-.47-.28-.26-.57-.53-.86-.78l-1.25-1.05-5.8,4.96c-.8,.69-2.04,.56-2.75-.27s-.65-2.08,.16-2.76l5.18-4.43,1.75-1.5,3.12-2.66,.5-.43,1.78-1.52c.8-.69,2.04-.56,2.75,.27,.72,.84,.65,2.08-.16,2.76l-1.19,1.02,.46,.38c.34,.3,.67,.6,1,.9,.17,.16,.34,.31,.51,.47l1.01,.92,.09,.09,.08,.08c.63-.55,1.24-1.1,1.81-1.61,5.08-4.58,1.41-8.68,1.08-9.02-.29-.38-3.77-4.65-9.08-.34-7.53,6.11-19,16.4-31.44,27.86,1.79,1.12,6.62,4.14,9.73,6.07,8.51-6.76,16.35-13.12,22.6-18.41Z"/>
          <path class="cls-2" d="M302.85,104.33c-.81-.54-1.62-1.08-2.43-1.61-.08-.05-.46-.3-.46-.3-.1-.06-.19-.12-.28-.18-28.55,26.49-59.98,56.97-59.98,56.97,0,0-.87,.87-.5,1.45,0,0,0,0,0,0,0,0,.02,.02,.03,.03s.01,.02,.02,.03c0,0,0,0,.01,0,.51,.45,1.51-.27,1.51-.27,0,0,36.85-27.71,67.99-52.28-.58-.37-1.17-.74-1.77-1.13-1.39-.9-2.78-1.82-4.13-2.72Z"/>
        </g>
        <path class="cls-3" d="M352.8,110.11c.75-1.43,1.14-3.03,1.24-4.58,.09-1.55-.09-3.06-.42-4.47-.33-1.42-.8-2.77-1.36-4.06-.55-1.29-1.19-2.52-1.88-3.71-1.38-2.38-2.96-4.59-4.65-6.68-.85-1.05-1.73-2.07-2.65-3.06-.46-.5-.92-.98-1.41-1.47l-.35-.35-.09-.08h0s-.07-.07-.07-.07l-.05-.04-.19-.17-.75-.68c-.5-.45-.99-.91-1.5-1.35l-.62-.52-.93-.77-.78-.64-.18-.13-3.12,2.67,.05,.04,.75,.57,.73,.61,.37,.31,1.08,.9c.47,.42,.93,.86,1.4,1.28l.7,.64,.02,.02,.16,.15,.04,.04s0,0,.02,.01l.09,.09,.34,.34c.43,.44,.87,.9,1.29,1.37,.85,.93,1.68,1.89,2.47,2.87,1.58,1.96,3.04,4.02,4.28,6.17,1.23,2.14,2.25,4.39,2.77,6.64,.26,1.12,.38,2.24,.32,3.3-.06,1.06-.31,2.05-.77,2.93-.46,.88-1.13,1.67-1.95,2.36-.42,.34-.87,.65-1.35,.94-.12,.07-.25,.14-.37,.21-.12,.07-.25,.14-.38,.2l-.37,.19h.03c.1-.06-.07,.02-.04,0h.01s-.03,0-.03,0l-.11,.05-.23,.09-.9,.38-.77,.24c-.13,.04-.25,.09-.39,.12l-.42,.1c-.28,.06-.56,.14-.85,.2-.58,.09-1.15,.21-1.74,.24l-.44,.04c-.15,.02-.29,.03-.44,.03l-.89,.02c-1.19,0-2.39-.08-3.59-.27-1.2-.16-2.4-.44-3.6-.75-2.39-.65-4.75-1.53-7.06-2.56-2.31-1.04-4.58-2.21-6.81-3.46-1.09-.61-2.17-1.25-3.25-1.9-1.13-.68-2.25-1.38-3.37-2.08-2.08-1.31-4.14-2.67-6.25-4.02-.11-.07-.22-.14-.33-.21-2.23-1.41-4.5-2.77-6.8-4.07-4.61-2.6-9.39-4.96-14.43-6.76-2.52-.9-5.1-1.66-7.72-2.23-2.63-.57-5.3-.94-7.99-1.09-2.69-.15-5.4-.06-8.07,.27-2.67,.33-5.31,.9-7.88,1.67-.64,.2-1.28,.38-1.91,.62-.63,.23-1.27,.43-1.88,.69l-.93,.37-.46,.19-.48,.22-1.77,.83c-1.18,.52-2.37,1.2-3.55,1.82l-.88,.48c-.29,.17-.57,.35-.85,.52l-1.7,1.04-.42,.26-.21,.13-.21,.14-.81,.57-1.63,1.15c-.13,.1-.27,.19-.4,.29l-.39,.31-.78,.62-1.56,1.24-1.48,1.32-.74,.66c-.25,.22-.5,.43-.73,.67l-1.4,1.4c-.47,.47-.94,.93-1.37,1.43-3.59,3.88-6.65,8.22-9.17,12.83-1.28,2.29-2.37,4.68-3.37,7.11-.27,.6-.47,1.22-.7,1.83l-.67,1.84c-.22,.61-.4,1.25-.59,1.87l-.58,1.87c.46-1.22,.91-2.45,1.39-3.66l.77-1.8c.26-.59,.5-1.2,.8-1.78l.86-1.75,.43-.87c.15-.29,.32-.57,.47-.86,.63-1.13,1.22-2.29,1.93-3.38,2.7-4.43,5.91-8.53,9.54-12.19,.44-.48,.92-.9,1.39-1.34l1.42-1.31c.23-.22,.48-.42,.73-.63l.74-.61,1.49-1.23,1.56-1.14,.78-.57,.39-.29c.13-.1,.27-.18,.4-.27l1.62-1.05,.81-.53,.2-.13,.21-.12,.42-.24,1.67-.96c.28-.16,.56-.32,.84-.48l.85-.42c1.15-.56,2.24-1.16,3.47-1.65l1.8-.77,.41-.18,.45-.16,.9-.33c.59-.23,1.21-.41,1.81-.61,.6-.21,1.22-.36,1.83-.54,2.45-.67,4.95-1.13,7.47-1.37,2.52-.25,5.05-.27,7.57-.07,5.04,.4,10,1.65,14.75,3.46,2.38,.9,4.72,1.95,7.01,3.09,2.3,1.14,4.55,2.37,6.77,3.67,2.06,1.21,4.1,2.47,6.1,3.77,.16,.1,.31,.2,.47,.3,2.16,1.42,4.34,2.88,6.54,4.31,.73,.47,1.47,.95,2.22,1.41,3.73,2.34,7.57,4.57,11.65,6.43,2.45,1.11,4.99,2.08,7.63,2.82,1.33,.35,2.67,.67,4.06,.87,1.37,.23,2.79,.33,4.2,.34l1.07-.02c.18,0,.36-.01,.53-.03l.54-.05c.72-.04,1.43-.18,2.14-.29,.36-.07,.71-.16,1.06-.24l.53-.13c.18-.05,.36-.11,.54-.17l1.09-.36,.91-.38,.23-.09,.11-.05,.06-.02c-.06,.03,.15-.06,.15-.07l.49-.24c.16-.08,.33-.17,.49-.26,.16-.09,.32-.18,.48-.27,.64-.38,1.26-.81,1.86-1.29,1.19-.97,2.26-2.2,3-3.64Z"/>
      </g>
      <g>
        <path class="cls-1" d="M87.12,99.34h6.93c1.74,0,3.28,.34,4.63,1.03,1.34,.69,2.39,1.66,3.13,2.9,.75,1.24,1.11,2.67,1.11,4.28s-.37,3.04-1.11,4.29c-.74,1.24-1.79,2.21-3.13,2.9-1.35,.69-2.89,1.03-4.63,1.03h-6.93v-16.44Zm6.79,14.39c1.33,0,2.5-.26,3.51-.78,1.01-.52,1.79-1.24,2.34-2.17,.55-.93,.82-2.01,.82-3.23s-.27-2.29-.82-3.23c-.55-.93-1.32-1.66-2.34-2.17-1.01-.52-2.18-.77-3.51-.77h-4.44v12.35h4.44Z"/>
        <path class="cls-1" d="M118.45,113.73v2.04h-11.93v-16.44h11.6v2.04h-9.25v5.05h8.24v1.99h-8.24v5.31h9.58Z"/>
        <path class="cls-1" d="M131.83,101.38h-5.64v-2.04h13.59v2.04h-5.64v14.39h-2.32v-14.39Z"/>
        <path class="cls-1" d="M154.28,113.73v2.04h-11.93v-16.44h11.6v2.04h-9.25v5.05h8.24v1.99h-8.24v5.31h9.58Z"/>
        <path class="cls-1" d="M158.08,99.34h2.35v14.39h8.9v2.04h-11.25v-16.44Z"/>
        <path class="cls-1" d="M182.57,111.66h-8.74l-1.81,4.11h-2.42l7.44-16.44h2.32l7.47,16.44h-2.47l-1.81-4.11Zm-.82-1.87l-3.55-8.05-3.55,8.05h7.09Z"/>
      </g>
    </g>
  </g>
</svg>